<svg width="32" height="32" viewBox="0 0 32 32" fill="none" xmlns="http://www.w3.org/2000/svg">
<g clip-path="url(#clip0_38687_515)">
<path d="M32 0H0V32H32V0Z" fill="white"/>
<path d="M23.3904 11.0742C23.2967 11.1319 21.2369 12.3311 21.2603 14.826C21.2862 17.8101 23.8763 18.8038 23.906 18.8151C23.8828 18.8861 23.4919 20.2305 22.5408 21.6188C21.7187 22.8216 20.8672 24.0175 19.5232 24.0425C18.2028 24.0667 17.7773 23.2591 16.2689 23.2591C14.7595 23.2591 14.2871 24.0175 13.0385 24.0667C11.7413 24.1157 10.7536 22.7678 9.92554 21.5717C8.23269 19.1238 6.93838 14.6537 8.67634 11.637C9.53916 10.1388 11.0814 9.18963 12.7547 9.16511C14.029 9.14103 15.2308 10.0218 16.0103 10.0218C16.7787 10.0218 18.1558 8.99507 19.779 9.11515C20.4152 9.1623 22.2212 9.35217 23.3904 11.0742ZM18.7774 7.49918C19.4668 6.66601 19.9306 5.50567 19.8029 4.35156C18.8107 4.39091 17.6107 5.01248 16.899 5.84512C16.2617 6.58271 15.702 7.76405 15.854 8.8946C16.9599 8.98005 18.0886 8.33287 18.7774 7.49918Z" fill="#1D1D1F"/>
</g>
<defs>
<clipPath id="clip0_38687_515">
<rect width="32" height="32" fill="white"/>
</clipPath>
</defs>
</svg>
