<svg width="32" height="9" viewBox="0 0 32 9" fill="none" xmlns="http://www.w3.org/2000/svg">
<g clip-path="url(#clip0_38687_637)">
<path fill-rule="evenodd" clip-rule="evenodd" d="M16.7645 3.5564C17.307 3.5564 17.7507 3.75954 17.8985 4.1144C17.948 4.26662 18.096 4.31754 18.293 4.31754H19.082C19.1805 4.31754 19.3285 4.21597 19.3285 4.01334C19.3285 3.10048 18.293 2.28868 16.7645 2.28868C15.187 2.28868 14.151 3.04982 14.151 4.26662C14.151 5.2304 14.891 5.78814 15.7785 6.04168C16.1728 6.14325 16.863 6.29522 17.2085 6.39654C17.5535 6.49811 17.8493 6.59968 17.8493 6.90388C17.8493 7.41122 17.3563 7.61411 16.8143 7.61411C16.2713 7.61411 15.7292 7.36031 15.5813 6.95454C15.4823 6.7514 15.3345 6.701 15.0883 6.701H14.299C14.151 6.701 14.0033 6.80128 14.0033 7.00442V7.10471C14.0033 8.01757 15.1867 8.93042 16.814 8.93042C17.948 8.93042 19.5257 8.47348 19.5257 6.90157C19.5257 5.98871 18.934 5.32914 17.9482 5.07585C17.6025 4.97428 16.6658 4.721 16.4683 4.66957C16.1233 4.61891 15.7782 4.46642 15.7782 4.16248C15.7782 3.7058 16.2222 3.55382 16.7645 3.55382V3.5564ZM22.1882 8.83091C20.9557 8.83091 20.2157 7.8674 20.2157 6.80257V3.70862H19.8215C19.674 3.70862 19.5257 3.55691 19.5257 3.35377V2.8472C19.5257 2.64354 19.6737 2.49157 19.8215 2.49157H20.216V0.614424C20.216 0.308424 20.4135 0.105281 20.6597 0.105281H21.3498C21.6448 0.105281 21.8423 0.358567 21.8423 0.611853V2.489H22.9272C23.1248 2.489 23.2722 2.64071 23.2722 2.84385V3.3512C23.2722 3.55434 23.1248 3.70605 22.9272 3.70605H21.8423V6.54697C21.8423 7.15562 22.1873 7.51074 22.7798 7.51074H22.8773C23.0748 7.51074 23.2222 7.66245 23.2222 7.916V8.474C23.2222 8.67714 23.0748 8.82885 22.8773 8.82885H22.1873L22.1882 8.83091ZM25.2945 0.615195C25.2945 0.361652 25.097 0.107853 24.8013 0.107853H24.1112C23.8155 0.107853 23.618 0.359852 23.618 0.614424V8.32357C23.618 8.627 23.8155 8.83014 24.1112 8.83014H24.8013C25.0972 8.83014 25.2945 8.627 25.2945 8.32357V0.614681V0.615195ZM10.6995 8.93248C8.777 8.93248 7.544 7.36031 7.544 5.58525C7.544 3.8642 8.6735 2.2946 10.639 2.28868H10.6503C12.8203 2.28868 13.7577 3.91125 13.7577 5.58525C13.7577 5.94011 13.6103 6.14325 13.2653 6.14325H9.22175C9.27075 6.85297 9.8625 7.51254 10.7008 7.51254C11.2418 7.51254 11.6358 7.3094 11.9333 6.90388C12.0308 6.80257 12.1307 6.70074 12.3267 6.70074H13.2635C13.461 6.70074 13.5595 6.90388 13.5595 7.05611C13.314 8.21788 11.992 8.92682 10.7145 8.93248H10.6995ZM28.9433 8.93248C27.0203 8.93248 25.7878 7.36031 25.7878 5.58525C25.7878 3.8642 26.9177 2.2946 28.8827 2.28868H28.8953C31.0653 2.28868 32.0028 3.91125 32.0028 5.58525C32.0028 5.94011 31.8553 6.14325 31.4603 6.14325H27.4653C27.5145 6.85297 28.106 7.51254 28.8948 7.51254C29.4865 7.51254 29.881 7.3094 30.1772 6.90388C30.2265 6.80257 30.3743 6.70074 30.5715 6.70074H31.5082C31.7057 6.70074 31.8057 6.90388 31.8057 7.05611C31.5602 8.21788 30.2383 8.92682 28.9608 8.93248H28.9457H28.9433ZM18.835 0.209424H5.8675C5.57175 0.209424 5.3745 0.462967 5.3745 0.767424L5.42375 5.99102C5.42375 5.99102 2.61375 0.817824 2.465 0.513881C2.3175 0.310738 2.022 0.0571954 1.6275 0.0571954H0.5425C0.24675 0.0571954 0 0.310738 0 0.615195V8.27291C0 8.57762 0.24675 8.83091 0.5425 8.83091H1.233C1.5285 8.83091 1.7755 8.57762 1.7755 8.27291L1.7255 2.89734C1.7255 2.89734 4.53675 8.12068 4.6845 8.32382C4.8325 8.62828 5.1285 8.83091 5.52275 8.83091H6.51025C6.807 8.83091 7.00275 8.57762 7.00275 8.27291V1.52805H18.8353C19.0328 1.52805 19.2302 1.32491 19.2302 1.12254V0.564538C19.2302 0.36191 19.0328 0.209681 18.8353 0.209681L18.835 0.209424ZM27.4643 4.87528H30.3237C30.2747 4.16557 29.6388 3.61014 28.9025 3.60757H28.8937C28.1572 3.60757 27.5672 4.16042 27.4655 4.865L27.4643 4.87271V4.87528ZM9.26975 4.87528H12.1298C12.0297 4.16557 11.3948 3.61014 10.6573 3.60757H10.6497C9.96225 3.60757 9.32275 4.16042 9.26975 4.865V4.87271V4.87528ZM26.2297 0.817567V1.17242C26.2297 1.32414 26.3272 1.47585 26.4753 1.47585H31.4058C31.652 1.47585 31.8493 1.27271 31.8493 1.01865V0.411795C31.8493 0.208653 31.6518 -0.0448904 31.4053 0.00550965C31.4053 0.00550965 26.6227 0.462195 26.4753 0.512853C26.3278 0.512853 26.2283 0.665338 26.2283 0.81731L26.2297 0.817567Z" fill="black"/>
</g>
<defs>
<clipPath id="clip0_38687_637">
<rect width="32" height="9" fill="white"/>
</clipPath>
</defs>
</svg>
